<svg width="5" height="7" viewBox="0 0 5 7" fill="none" xmlns="http://www.w3.org/2000/svg">
<path fill-rule="evenodd" clip-rule="evenodd" d="M4.20227 5.70308C4.34812 6.10591 4.14851 6.55384 3.75613 6.70421C2.78821 7.09282 1.71307 7.09282 0.745152 6.70421H0.743253C0.351889 6.55383 0.152506 6.1073 0.297113 5.70503L0.889436 3.99299C0.619348 3.66657 0.470703 3.25254 0.469873 2.82437C0.468029 1.86998 1.18325 1.0753 2.1107 1.00124C3.03816 0.927185 3.86461 1.59876 4.00673 2.54195C4.0854 3.06207 3.93991 3.5916 3.60805 3.99299L4.20227 5.70308ZM1.46698 2.53363C1.35103 2.87593 1.45905 3.25602 1.73615 3.48074H1.73426C1.89268 3.6101 1.95367 3.82833 1.88613 4.02416L1.25204 5.855C1.89994 6.07448 2.59944 6.07448 3.24734 5.855L2.61325 4.02416C2.54571 3.82833 2.6067 3.6101 2.76513 3.48074C3.04223 3.25602 3.15025 2.87593 3.0343 2.53363C2.91835 2.19132 2.60386 1.96187 2.25064 1.96187C1.89742 1.96187 1.58293 2.19132 1.46698 2.53363Z" fill="#C1BEBE"/>
</svg>
