<svg width="5" height="6" viewBox="0 0 5 6" fill="none" xmlns="http://www.w3.org/2000/svg">
<path fill-rule="evenodd" clip-rule="evenodd" d="M4.20227 4.70742C4.34812 5.11025 4.14851 5.55817 3.75613 5.70854C2.78821 6.09715 1.71307 6.09715 0.745152 5.70854H0.743253C0.351889 5.55817 0.152506 5.11163 0.297113 4.70936L0.889436 2.99733C0.619348 2.6709 0.470703 2.25687 0.469873 1.8287C0.468029 0.874311 1.18325 0.0796337 2.1107 0.00557613C3.03816 -0.0684815 3.86461 0.603093 4.00673 1.54628C4.0854 2.0664 3.93991 2.59593 3.60805 2.99733L4.20227 4.70742ZM1.46698 1.53796C1.35103 1.88026 1.45905 2.26035 1.73615 2.48508H1.73426C1.89268 2.61444 1.95367 2.83266 1.88613 3.02849L1.25204 4.85934C1.89994 5.07882 2.59944 5.07882 3.24734 4.85934L2.61325 3.02849C2.54571 2.83266 2.6067 2.61444 2.76513 2.48508C3.04223 2.26035 3.15025 1.88026 3.0343 1.53796C2.91835 1.19566 2.60386 0.966206 2.25064 0.966206C1.89742 0.966206 1.58293 1.19566 1.46698 1.53796Z" fill="#440099"/>
</svg>
