<svg width="23" height="23" viewBox="0 0 23 23" fill="none" xmlns="http://www.w3.org/2000/svg">
<path fill-rule="evenodd" clip-rule="evenodd" d="M16.096 1.11666L6.95786 10.2548C6.75825 10.4544 6.64612 10.7251 6.64612 11.0074V15.2647C6.64612 15.8525 7.12264 16.329 7.71045 16.329H11.9678C12.2501 16.329 12.5208 16.2169 12.7204 16.0173L21.8585 6.87918C23.1054 5.63224 23.1054 3.61055 21.8585 2.36361L20.6116 1.11666C19.3646 -0.130278 17.3429 -0.130278 16.096 1.11666ZM20.3533 3.8688L20.4418 3.96907C20.7665 4.3866 20.737 4.99032 20.3533 5.37399L11.525 14.2004H8.77479V11.448L17.6012 2.62186C18.0168 2.20621 18.6907 2.20621 19.1064 2.62186L20.3533 3.8688ZM10.9362 2.49273C10.9362 1.90491 10.4597 1.4284 9.87191 1.4284H5.58179L5.35095 1.43331C2.51897 1.55418 0.260132 3.88833 0.260132 6.75005V17.3934L0.265049 17.6242C0.385917 20.4562 2.72006 22.715 5.58179 22.715H16.2251L16.4559 22.7101C19.2879 22.5892 21.5468 20.2551 21.5468 17.3934V12.1586L21.5396 12.0345C21.4781 11.5052 21.0283 11.0943 20.4824 11.0943C19.8946 11.0943 19.4181 11.5708 19.4181 12.1586V17.3934L19.4127 17.581C19.3156 19.2571 17.9256 20.5864 16.2251 20.5864H5.58179L5.39418 20.5809C3.71806 20.4838 2.38879 19.0938 2.38879 17.3934V6.75005L2.39421 6.56244C2.49133 4.88632 3.88133 3.55706 5.58179 3.55706H9.87191L9.99603 3.5499C10.5254 3.48842 10.9362 3.03855 10.9362 2.49273Z" fill="#0A1629"/>
</svg>
