<svg width="13" height="17" viewBox="0 0 13 17" fill="none" xmlns="http://www.w3.org/2000/svg">
<path fill-rule="evenodd" clip-rule="evenodd" d="M6.72906 0.897644C3.36094 0.897644 0.641052 3.71005 0.641052 7.16684C0.641052 8.97107 2.00943 11.5064 4.72191 14.8941L4.95716 15.1858C5.75351 16.1667 7.1913 16.3159 8.17016 15.5212C8.29159 15.4226 8.40256 15.3118 8.50134 15.1905C11.3704 11.6678 12.8171 9.03504 12.8171 7.16684C12.8171 3.71005 10.0972 0.897644 6.72906 0.897644ZM6.7292 2.41967C9.24514 2.41967 11.2952 4.53947 11.2952 7.16686C11.2952 8.57074 9.97868 10.9667 7.32136 14.2294C7.28844 14.2698 7.25145 14.3068 7.21097 14.3396C6.88468 14.6045 6.40542 14.5548 6.14051 14.2285L5.9085 13.9408C3.40408 10.8129 2.1632 8.51384 2.1632 7.16686C2.1632 4.53947 4.21327 2.41967 6.7292 2.41967ZM6.7289 3.94165C5.04775 3.94165 3.6849 5.30449 3.6849 6.98565C3.6849 8.66681 5.04775 10.0297 6.7289 10.0297C8.41006 10.0297 9.77291 8.66681 9.77291 6.98565C9.77291 5.30449 8.41006 3.94165 6.7289 3.94165ZM6.72949 5.46362C7.57007 5.46362 8.25149 6.14504 8.25149 6.98562C8.25149 7.8262 7.57007 8.50762 6.72949 8.50762C5.88891 8.50762 5.20749 7.8262 5.20749 6.98562C5.20749 6.14504 5.88891 5.46362 6.72949 5.46362Z" fill="#7D8592"/>
</svg>
