<svg width="53" height="15" viewBox="0 0 53 15" fill="none" xmlns="http://www.w3.org/2000/svg">
<path d="M8.52734 11.3633H3.9043L3.02539 14H0.22168L4.98535 1.20312H7.42871L12.2188 14H9.41504L8.52734 11.3633ZM4.61621 9.22754H7.81543L6.20703 4.4375L4.61621 9.22754ZM15.1631 4.49023L15.2422 5.58887C15.9219 4.73926 16.833 4.31445 17.9756 4.31445C18.9834 4.31445 19.7334 4.61035 20.2256 5.20215C20.7178 5.79395 20.9697 6.67871 20.9814 7.85645V14H18.4414V7.91797C18.4414 7.37891 18.3242 6.98926 18.0898 6.74902C17.8555 6.50293 17.4658 6.37988 16.9209 6.37988C16.2061 6.37988 15.6699 6.68457 15.3125 7.29395V14H12.7725V4.49023H15.1631ZM22.5195 9.1748C22.5195 7.69238 22.8506 6.51172 23.5127 5.63281C24.1807 4.75391 25.0918 4.31445 26.2461 4.31445C27.1719 4.31445 27.9365 4.66016 28.54 5.35156V0.5H31.0889V14H28.7949L28.6719 12.9893C28.0391 13.7803 27.2246 14.1758 26.2285 14.1758C25.1094 14.1758 24.21 13.7363 23.5303 12.8574C22.8564 11.9727 22.5195 10.7451 22.5195 9.1748ZM25.0596 9.35938C25.0596 10.25 25.2148 10.9326 25.5254 11.4072C25.8359 11.8818 26.2871 12.1191 26.8789 12.1191C27.6641 12.1191 28.2178 11.7881 28.54 11.126V7.37305C28.2236 6.71094 27.6758 6.37988 26.8965 6.37988C25.6719 6.37988 25.0596 7.37305 25.0596 9.35938ZM38.4014 6.87207C38.0557 6.8252 37.751 6.80176 37.4873 6.80176C36.5264 6.80176 35.8965 7.12695 35.5977 7.77734V14H33.0576V4.49023H35.457L35.5273 5.62402C36.0371 4.75098 36.7432 4.31445 37.6455 4.31445C37.9268 4.31445 38.1904 4.35254 38.4365 4.42871L38.4014 6.87207ZM43.833 14.1758C42.4385 14.1758 41.3018 13.748 40.4229 12.8926C39.5498 12.0371 39.1133 10.8975 39.1133 9.47363V9.22754C39.1133 8.27246 39.2979 7.41992 39.667 6.66992C40.0361 5.91406 40.5576 5.33398 41.2314 4.92969C41.9111 4.51953 42.6846 4.31445 43.5518 4.31445C44.8525 4.31445 45.875 4.72461 46.6191 5.54492C47.3691 6.36523 47.7441 7.52832 47.7441 9.03418V10.0713H41.6885C41.7705 10.6924 42.0166 11.1904 42.4268 11.5654C42.8428 11.9404 43.3672 12.1279 44 12.1279C44.9785 12.1279 45.7432 11.7734 46.2939 11.0645L47.542 12.4619C47.1611 13.001 46.6455 13.4229 45.9951 13.7275C45.3447 14.0264 44.624 14.1758 43.833 14.1758ZM43.543 6.37109C43.0391 6.37109 42.6289 6.54102 42.3125 6.88086C42.002 7.2207 41.8027 7.70703 41.7148 8.33984H45.248V8.1377C45.2363 7.5752 45.084 7.1416 44.791 6.83691C44.498 6.52637 44.082 6.37109 43.543 6.37109ZM51.875 14H49.3262V4.49023H51.875V14ZM49.1768 2.0293C49.1768 1.64844 49.3027 1.33496 49.5547 1.08887C49.8125 0.842773 50.1611 0.719727 50.6006 0.719727C51.0342 0.719727 51.3799 0.842773 51.6377 1.08887C51.8955 1.33496 52.0244 1.64844 52.0244 2.0293C52.0244 2.41602 51.8926 2.73242 51.6289 2.97852C51.3711 3.22461 51.0283 3.34766 50.6006 3.34766C50.1729 3.34766 49.8271 3.22461 49.5635 2.97852C49.3057 2.73242 49.1768 2.41602 49.1768 2.0293Z" fill="#1A1725"/>
</svg>
