<svg width="25" height="22" viewBox="0 0 25 22" fill="none" xmlns="http://www.w3.org/2000/svg">
<path fill-rule="evenodd" clip-rule="evenodd" d="M24.25 19.0015V5.17546C24.25 4.07659 23.3533 3.18225 22.2511 3.18225H8.2111C7.83033 3.18225 7.47939 2.97493 7.29576 2.64211L6.9574 2.02853C6.60645 1.39171 5.93486 0.995667 5.20594 0.995667H3.24894C2.1467 0.995667 1.25 1.89001 1.25 2.98888V19.0015C1.25 20.1013 2.1467 20.9957 3.24894 20.9957H22.2511C23.3533 20.9957 24.25 20.1013 24.25 19.0015ZM3.24894 1.94765H5.20594C5.58671 1.94765 5.93765 2.15497 6.12128 2.48779L6.45964 3.10137C6.81059 3.73819 7.48218 4.13423 8.2111 4.13423H22.2511C22.8271 4.13423 23.2955 4.60093 23.2955 5.17546V6.71686H2.2045V2.98888C2.2045 2.41434 2.67289 1.94765 3.24894 1.94765ZM2.2045 7.66884V19.0015C2.2045 19.5761 2.67289 20.0437 3.24894 20.0437H22.2511C22.8271 20.0437 23.2955 19.5761 23.2955 19.0015V7.66884H2.2045Z" fill="#C1BEBE"/>
<path d="M7.29576 2.64211L7.03306 2.78698L7.03309 2.78704L7.29576 2.64211ZM6.9574 2.02853L6.69465 2.17332L6.69469 2.1734L6.9574 2.02853ZM6.12128 2.48779L6.38399 2.34292L6.38395 2.34286L6.12128 2.48779ZM6.45964 3.10137L6.72239 2.95658L6.72235 2.9565L6.45964 3.10137ZM23.2955 6.71686V7.01686H23.5955V6.71686H23.2955ZM2.2045 6.71686H1.9045V7.01686H2.2045V6.71686ZM2.2045 7.66884V7.36884H1.9045V7.66884H2.2045ZM23.2955 7.66884H23.5955V7.36884H23.2955V7.66884ZM23.95 5.17546V19.0015H24.55V5.17546H23.95ZM22.2511 3.48225C23.1884 3.48225 23.95 4.24307 23.95 5.17546H24.55C24.55 3.91012 23.5182 2.88225 22.2511 2.88225V3.48225ZM8.2111 3.48225H22.2511V2.88225H8.2111V3.48225ZM7.03309 2.78704C7.26952 3.21556 7.7211 3.48225 8.2111 3.48225V2.88225C7.93956 2.88225 7.68926 2.73431 7.55843 2.49719L7.03309 2.78704ZM6.69469 2.1734L7.03306 2.78698L7.55846 2.49724L7.2201 1.88366L6.69469 2.1734ZM5.20594 1.29567C5.82588 1.29567 6.39664 1.63254 6.69465 2.17332L7.22014 1.88374C6.81627 1.15087 6.04383 0.695666 5.20594 0.695666V1.29567ZM3.24894 1.29567H5.20594V0.695666H3.24894V1.29567ZM1.55 2.98888C1.55 2.05649 2.3116 1.29567 3.24894 1.29567V0.695666C1.98181 0.695666 0.95 1.72353 0.95 2.98888H1.55ZM1.55 19.0015V2.98888H0.95V19.0015H1.55ZM3.24894 20.6957C2.31169 20.6957 1.55 19.9349 1.55 19.0015H0.95C0.95 20.2677 1.98172 21.2957 3.24894 21.2957V20.6957ZM22.2511 20.6957H3.24894V21.2957H22.2511V20.6957ZM23.95 19.0015C23.95 19.9349 23.1883 20.6957 22.2511 20.6957V21.2957C23.5183 21.2957 24.55 20.2677 24.55 19.0015H23.95ZM5.20594 1.64765H3.24894V2.24765H5.20594V1.64765ZM6.38395 2.34286C6.14752 1.91434 5.69594 1.64765 5.20594 1.64765V2.24765C5.47748 2.24765 5.72778 2.39559 5.85861 2.63271L6.38395 2.34286ZM6.72235 2.9565L6.38399 2.34292L5.85858 2.63266L6.19694 3.24624L6.72235 2.9565ZM8.2111 3.83423C7.59116 3.83423 7.0204 3.49736 6.72239 2.95658L6.1969 3.24616C6.60077 3.97903 7.37321 4.43423 8.2111 4.43423V3.83423ZM22.2511 3.83423H8.2111V4.43423H22.2511V3.83423ZM23.5955 5.17546C23.5955 4.43432 22.9919 3.83423 22.2511 3.83423V4.43423C22.6623 4.43423 22.9955 4.76753 22.9955 5.17546H23.5955ZM23.5955 6.71686V5.17546H22.9955V6.71686H23.5955ZM2.2045 7.01686H23.2955V6.41686H2.2045V7.01686ZM1.9045 2.98888V6.71686H2.5045V2.98888H1.9045ZM3.24894 1.64765C2.50812 1.64765 1.9045 2.24774 1.9045 2.98888H2.5045C2.5045 2.58095 2.83765 2.24765 3.24894 2.24765V1.64765ZM2.5045 19.0015V7.66884H1.9045V19.0015H2.5045ZM3.24894 19.7437C2.838 19.7437 2.5045 19.4098 2.5045 19.0015H1.9045C1.9045 19.7423 2.50777 20.3437 3.24894 20.3437V19.7437ZM22.2511 19.7437H3.24894V20.3437H22.2511V19.7437ZM22.9955 19.0015C22.9955 19.4098 22.662 19.7437 22.2511 19.7437V20.3437C22.9922 20.3437 23.5955 19.7423 23.5955 19.0015H22.9955ZM22.9955 7.66884V19.0015H23.5955V7.66884H22.9955ZM2.2045 7.96884H23.2955V7.36884H2.2045V7.96884Z" fill="#C1BEBE"/>
</svg>
