<svg width="25" height="22" viewBox="0 0 25 22" fill="none" xmlns="http://www.w3.org/2000/svg">
<path fill-rule="evenodd" clip-rule="evenodd" d="M24.25 19.0059V5.1798C24.25 4.08093 23.3533 3.18658 22.2511 3.18658H8.2111C7.83033 3.18658 7.47939 2.97927 7.29576 2.64645L6.9574 2.03286C6.60645 1.39604 5.93486 1 5.20594 1H3.24894C2.1467 1 1.25 1.89434 1.25 2.99321V19.0059C1.25 20.1057 2.1467 21 3.24894 21H22.2511C23.3533 21 24.25 20.1057 24.25 19.0059ZM3.24894 1.95198H5.20594C5.58671 1.95198 5.93765 2.1593 6.12128 2.49212L6.45964 3.1057C6.81059 3.74253 7.48218 4.13857 8.2111 4.13857H22.2511C22.8271 4.13857 23.2955 4.60526 23.2955 5.1798V6.72119H2.2045V2.99321C2.2045 2.41868 2.67289 1.95198 3.24894 1.95198ZM2.2045 7.67317V19.0059C2.2045 19.5804 2.67289 20.048 3.24894 20.048H22.2511C22.8271 20.048 23.2955 19.5804 23.2955 19.0059V7.67317H2.2045Z" fill="#440099"/>
<path d="M7.29576 2.64645L7.03306 2.79131L7.03309 2.79137L7.29576 2.64645ZM6.9574 2.03286L6.69465 2.17766L6.69469 2.17773L6.9574 2.03286ZM6.12128 2.49212L6.38399 2.34725L6.38395 2.3472L6.12128 2.49212ZM6.45964 3.1057L6.72239 2.96091L6.72235 2.96084L6.45964 3.1057ZM23.2955 6.72119V7.02119H23.5955V6.72119H23.2955ZM2.2045 6.72119H1.9045V7.02119H2.2045V6.72119ZM2.2045 7.67317V7.37317H1.9045V7.67317H2.2045ZM23.2955 7.67317H23.5955V7.37317H23.2955V7.67317ZM23.95 5.1798V19.0059H24.55V5.1798H23.95ZM22.2511 3.48658C23.1884 3.48658 23.95 4.2474 23.95 5.1798H24.55C24.55 3.91445 23.5182 2.88658 22.2511 2.88658V3.48658ZM8.2111 3.48658H22.2511V2.88658H8.2111V3.48658ZM7.03309 2.79137C7.26952 3.21989 7.7211 3.48658 8.2111 3.48658V2.88658C7.93956 2.88658 7.68926 2.73864 7.55843 2.50152L7.03309 2.79137ZM6.69469 2.17773L7.03306 2.79131L7.55846 2.50158L7.2201 1.888L6.69469 2.17773ZM5.20594 1.3C5.82588 1.3 6.39664 1.63688 6.69465 2.17766L7.22014 1.88807C6.81627 1.1552 6.04383 0.7 5.20594 0.7V1.3ZM3.24894 1.3H5.20594V0.7H3.24894V1.3ZM1.55 2.99321C1.55 2.06082 2.3116 1.3 3.24894 1.3V0.7C1.98181 0.7 0.95 1.72787 0.95 2.99321H1.55ZM1.55 19.0059V2.99321H0.95V19.0059H1.55ZM3.24894 20.7C2.31169 20.7 1.55 19.9393 1.55 19.0059H0.95C0.95 20.272 1.98172 21.3 3.24894 21.3V20.7ZM22.2511 20.7H3.24894V21.3H22.2511V20.7ZM23.95 19.0059C23.95 19.9393 23.1883 20.7 22.2511 20.7V21.3C23.5183 21.3 24.55 20.272 24.55 19.0059H23.95ZM5.20594 1.65198H3.24894V2.25198H5.20594V1.65198ZM6.38395 2.3472C6.14752 1.91867 5.69594 1.65198 5.20594 1.65198V2.25198C5.47748 2.25198 5.72778 2.39992 5.85861 2.63705L6.38395 2.3472ZM6.72235 2.96084L6.38399 2.34725L5.85858 2.63699L6.19694 3.25057L6.72235 2.96084ZM8.2111 3.83857C7.59116 3.83857 7.0204 3.50169 6.72239 2.96091L6.1969 3.2505C6.60077 3.98337 7.37321 4.43857 8.2111 4.43857V3.83857ZM22.2511 3.83857H8.2111V4.43857H22.2511V3.83857ZM23.5955 5.1798C23.5955 4.43866 22.9919 3.83857 22.2511 3.83857V4.43857C22.6623 4.43857 22.9955 4.77187 22.9955 5.1798H23.5955ZM23.5955 6.72119V5.1798H22.9955V6.72119H23.5955ZM2.2045 7.02119H23.2955V6.42119H2.2045V7.02119ZM1.9045 2.99321V6.72119H2.5045V2.99321H1.9045ZM3.24894 1.65198C2.50812 1.65198 1.9045 2.25207 1.9045 2.99321H2.5045C2.5045 2.58528 2.83765 2.25198 3.24894 2.25198V1.65198ZM2.5045 19.0059V7.67317H1.9045V19.0059H2.5045ZM3.24894 19.748C2.838 19.748 2.5045 19.4141 2.5045 19.0059H1.9045C1.9045 19.7466 2.50777 20.348 3.24894 20.348V19.748ZM22.2511 19.748H3.24894V20.348H22.2511V19.748ZM22.9955 19.0059C22.9955 19.4141 22.662 19.748 22.2511 19.748V20.348C22.9922 20.348 23.5955 19.7466 23.5955 19.0059H22.9955ZM22.9955 7.67317V19.0059H23.5955V7.67317H22.9955ZM2.2045 7.97317H23.2955V7.37317H2.2045V7.97317Z" fill="#440099"/>
</svg>
