<svg width="25" height="26" viewBox="0 0 25 26" fill="none" xmlns="http://www.w3.org/2000/svg">
<path fill-rule="evenodd" clip-rule="evenodd" d="M8.03015 4.18798C8.26673 2.20456 9.95467 0.666748 12.0018 0.666748C14.0489 0.666748 15.7369 2.20458 15.9734 4.18803C19.3103 5.70074 21.6314 9.06083 21.6314 12.963V19.6533L23.8587 24.0659C24.3063 24.9528 23.6618 26.0001 22.6684 26.0001H1.33507C0.34168 26.0001 -0.302855 24.9528 0.144776 24.0659L2.37211 19.6533V12.963C2.37211 9.06079 4.69323 5.70066 8.03015 4.18798ZM12.0027 3.33341C12.0024 3.33341 12.0021 3.33341 12.0018 3.33341C12.0018 3.33341 12.0018 3.33341 12.0017 3.33341C12.002 3.33341 12.0024 3.33341 12.0027 3.33341Z" fill="#38057F"/>
</svg>
