<svg width="23" height="22" viewBox="0 0 23 22" fill="none" xmlns="http://www.w3.org/2000/svg">
<path fill-rule="evenodd" clip-rule="evenodd" d="M18.4337 20.2174C18.5695 20.8191 18.041 21.1944 17.5161 20.8832L11.8986 17.552C11.8328 17.513 11.6669 17.5134 11.6019 17.552L5.98435 20.8832C5.45333 21.1981 4.93257 20.8121 5.06677 20.2174L6.5032 13.8525C6.52002 13.778 6.46835 13.6205 6.41151 13.5707L1.50326 9.26454C1.03928 8.85749 1.24596 8.24359 1.85374 8.1873L8.35903 7.58475C8.43522 7.57769 8.56916 7.47997 8.59908 7.41057L11.1832 1.41805C11.4274 0.851578 12.0759 0.858178 12.3173 1.41805L14.9014 7.41057C14.9317 7.48075 15.0661 7.57777 15.1414 7.58475L21.6467 8.1873C22.2617 8.24426 22.4558 8.86223 21.9972 9.26454L17.089 13.5707C17.0315 13.6211 16.9806 13.7788 16.9973 13.8525L18.4337 20.2174ZM6.03415 19.8602L11.1602 16.8092C11.4968 16.6096 12.0015 16.6083 12.3403 16.8092L17.4643 19.8477L16.1534 14.0424C16.0673 13.6611 16.222 13.1813 16.518 12.9216L20.988 9.00005L15.0616 8.44498C14.6718 8.40888 14.2627 8.11368 14.1069 7.75228L11.7453 2.27575L9.39361 7.75228C9.23879 8.11132 8.83125 8.40864 8.43892 8.44498L2.51046 8.9941L6.98244 12.9216C7.27652 13.1796 7.43373 13.6586 7.3471 14.0424L6.03415 19.8602Z" fill="#C1BEBE"/>
<path d="M17.5161 20.8832L17.3376 21.1842L17.5161 20.8832ZM18.4337 20.2174L18.7751 20.1404L18.4337 20.2174ZM11.8986 17.552L11.7201 17.8531H11.7201L11.8986 17.552ZM11.6019 17.552L11.7804 17.8531L11.7804 17.8531L11.6019 17.552ZM5.98435 20.8832L5.80583 20.5821H5.80583L5.98435 20.8832ZM5.06677 20.2174L5.40819 20.2945L5.06677 20.2174ZM6.5032 13.8525L6.84462 13.9295L6.84462 13.9295L6.5032 13.8525ZM6.41151 13.5707L6.18069 13.8338L6.18069 13.8338L6.41151 13.5707ZM1.50326 9.26454L1.27243 9.52764H1.27243L1.50326 9.26454ZM1.85374 8.1873L1.88602 8.53581H1.88602L1.85374 8.1873ZM8.35903 7.58475L8.32675 7.23624H8.32675L8.35903 7.58475ZM8.59908 7.41057L8.27769 7.27198V7.27198L8.59908 7.41057ZM11.1832 1.41805L10.8618 1.27946V1.27946L11.1832 1.41805ZM12.3173 1.41805L12.6387 1.27946V1.27946L12.3173 1.41805ZM14.9014 7.41057L15.2228 7.27198L15.2228 7.27198L14.9014 7.41057ZM15.1414 7.58475L15.1737 7.23624H15.1737L15.1414 7.58475ZM21.6467 8.1873L21.679 7.83879L21.6467 8.1873ZM21.9972 9.26454L22.2281 9.52764L21.9972 9.26454ZM17.089 13.5707L16.8582 13.3076L16.8581 13.3076L17.089 13.5707ZM16.9973 13.8525L17.3387 13.7754L17.3387 13.7754L16.9973 13.8525ZM11.1602 16.8092L10.9817 16.5081L10.9812 16.5084L11.1602 16.8092ZM6.03415 19.8602L5.69274 19.7832L5.51349 20.5774L6.21316 20.161L6.03415 19.8602ZM12.3403 16.8092L12.1617 17.1102L12.3403 16.8092ZM17.4643 19.8477L17.2858 20.1488L17.9847 20.5632L17.8057 19.7706L17.4643 19.8477ZM16.1534 14.0424L15.812 14.1195L15.812 14.1195L16.1534 14.0424ZM16.518 12.9216L16.7489 13.1847L16.518 12.9216ZM20.988 9.00005L21.2188 9.26315L21.8295 8.72734L21.0206 8.65158L20.988 9.00005ZM15.0616 8.44498L15.0942 8.0965L15.0938 8.09647L15.0616 8.44498ZM14.1069 7.75228L13.7855 7.89086L14.1069 7.75228ZM11.7453 2.27575L12.0667 2.13717L11.7446 1.39029L11.4237 2.13765L11.7453 2.27575ZM9.39361 7.75228L9.715 7.89086L9.71521 7.89038L9.39361 7.75228ZM8.43892 8.44498L8.4712 8.79349H8.4712L8.43892 8.44498ZM2.51046 8.9941L2.47818 8.64559L1.66863 8.72058L2.2795 9.25708L2.51046 8.9941ZM6.98244 12.9216L6.75148 13.1846L6.75162 13.1847L6.98244 12.9216ZM7.3471 14.0424L7.00569 13.9654L7.3471 14.0424ZM17.3376 21.1842C17.7012 21.3998 18.1169 21.4 18.4272 21.1767C18.7386 20.9525 18.8691 20.5568 18.7751 20.1404L18.0923 20.2945C18.1341 20.4797 18.0682 20.5725 18.0182 20.6086C17.9669 20.6455 17.8559 20.6778 17.6947 20.5821L17.3376 21.1842ZM11.7201 17.8531L17.3376 21.1842L17.6947 20.5821L12.0771 17.251L11.7201 17.8531ZM11.7804 17.8531C11.7618 17.8641 11.7473 17.8694 11.7412 17.8714C11.7377 17.8726 11.7351 17.8733 11.7336 17.8737C11.7328 17.8738 11.7323 17.874 11.7319 17.8741C11.7316 17.8741 11.7314 17.8742 11.7314 17.8742C11.7313 17.8742 11.7315 17.8741 11.7318 17.8741C11.7321 17.8741 11.7325 17.874 11.733 17.8739C11.7341 17.8738 11.7356 17.8736 11.7374 17.8734C11.7411 17.8731 11.7455 17.8729 11.7503 17.8729C11.7551 17.8729 11.7595 17.8731 11.7632 17.8734C11.765 17.8736 11.7664 17.8737 11.7675 17.8739C11.7686 17.874 11.7691 17.8741 11.7691 17.8741C11.7691 17.8741 11.7689 17.8741 11.7685 17.874C11.7682 17.8739 11.7676 17.8738 11.7668 17.8736C11.7653 17.8732 11.7627 17.8725 11.7591 17.8713C11.753 17.8693 11.7386 17.864 11.7201 17.8531L12.0771 17.251C11.9612 17.1822 11.825 17.1728 11.7496 17.1729C11.6744 17.173 11.5387 17.1826 11.4234 17.251L11.7804 17.8531ZM6.16287 21.1842L11.7804 17.8531L11.4234 17.251L5.80583 20.5821L6.16287 21.1842ZM4.72536 20.1404C4.63229 20.5528 4.76081 20.9482 5.06951 21.1739C5.37913 21.4003 5.79575 21.4019 6.16287 21.1842L5.80583 20.5821C5.64192 20.6793 5.53266 20.6454 5.4827 20.6089C5.43181 20.5717 5.36706 20.4767 5.40819 20.2945L4.72536 20.1404ZM6.16179 13.7754L4.72536 20.1404L5.40819 20.2945L6.84462 13.9295L6.16179 13.7754ZM6.18069 13.8338C6.16437 13.8195 6.15489 13.8073 6.15105 13.8021C6.14881 13.7991 6.14732 13.7969 6.1465 13.7956C6.14607 13.7949 6.14577 13.7944 6.14558 13.794C6.14539 13.7937 6.14529 13.7935 6.14529 13.7935C6.14528 13.7935 6.14554 13.794 6.14601 13.795C6.14648 13.7959 6.14708 13.7973 6.14778 13.7989C6.14922 13.8023 6.15078 13.8064 6.15226 13.8109C6.15373 13.8155 6.15489 13.8197 6.15572 13.8232C6.15613 13.825 6.15641 13.8264 6.15661 13.8274C6.1568 13.8285 6.15686 13.829 6.15686 13.8289C6.15686 13.8289 6.15675 13.8281 6.15664 13.8265C6.15654 13.8249 6.15641 13.8222 6.15643 13.8184C6.15648 13.8119 6.15703 13.7965 6.16179 13.7755L6.84462 13.9295C6.87434 13.7979 6.84108 13.6654 6.81771 13.5937C6.79435 13.5222 6.74319 13.3961 6.64233 13.3076L6.18069 13.8338ZM1.27243 9.52764L6.18069 13.8338L6.64233 13.3076L1.73408 9.00144L1.27243 9.52764ZM1.82146 7.83879C1.40058 7.87777 1.06383 8.12165 0.944166 8.48486C0.824053 8.84944 0.951556 9.24613 1.27243 9.52764L1.73408 9.00144C1.59098 8.8759 1.58984 8.76211 1.60901 8.7039C1.62864 8.64433 1.69911 8.55312 1.88602 8.53581L1.82146 7.83879ZM8.32675 7.23624L1.82146 7.83879L1.88602 8.53581L8.39131 7.93325L8.32675 7.23624ZM8.27769 7.27198C8.2863 7.25201 8.29492 7.23925 8.29868 7.234C8.30087 7.23094 8.30257 7.22883 8.30355 7.22765C8.30407 7.22703 8.30445 7.22659 8.3047 7.22631C8.30495 7.22603 8.30508 7.22589 8.30509 7.22588C8.30509 7.22588 8.30472 7.22627 8.30393 7.22703C8.30314 7.22778 8.30207 7.22876 8.3007 7.22995C8.29791 7.23237 8.29446 7.23513 8.29059 7.23794C8.28672 7.24076 8.28304 7.24318 8.27989 7.24508C8.27835 7.24601 8.27708 7.24672 8.27614 7.24723C8.27518 7.24775 8.2747 7.24798 8.27471 7.24797C8.27473 7.24796 8.27491 7.24788 8.27526 7.24773C8.2756 7.24758 8.27615 7.24734 8.27689 7.24705C8.27833 7.24647 8.28086 7.24551 8.28445 7.24438C8.29063 7.24242 8.30531 7.23822 8.32675 7.23624L8.39131 7.93325C8.52554 7.92082 8.64124 7.84846 8.70222 7.80413C8.76306 7.7599 8.86734 7.67238 8.92048 7.54916L8.27769 7.27198ZM10.8618 1.27946L8.27769 7.27198L8.92048 7.54916L11.5045 1.55664L10.8618 1.27946ZM12.6387 1.27946C12.4713 0.891252 12.1349 0.647088 11.7526 0.645673C11.369 0.644252 11.0308 0.887465 10.8618 1.27946L11.5045 1.55664C11.5798 1.38216 11.6879 1.34544 11.75 1.34567C11.8134 1.3459 11.9219 1.38497 11.9959 1.55664L12.6387 1.27946ZM15.2228 7.27198L12.6387 1.27946L11.9959 1.55664L14.58 7.54916L15.2228 7.27198ZM15.1737 7.23624C15.1953 7.23824 15.2101 7.24246 15.2162 7.24439C15.2198 7.24552 15.2223 7.24648 15.2237 7.24704C15.2244 7.24734 15.225 7.24756 15.2253 7.24771C15.2256 7.24786 15.2258 7.24794 15.2258 7.24794C15.2258 7.24795 15.2257 7.24789 15.2254 7.24776C15.2252 7.24763 15.2248 7.24744 15.2243 7.24718C15.2234 7.24667 15.2221 7.24595 15.2206 7.24502C15.2174 7.24311 15.2137 7.24069 15.2098 7.23788C15.2059 7.23507 15.2025 7.23233 15.1997 7.22992C15.1983 7.22875 15.1973 7.22777 15.1965 7.22704C15.1957 7.22629 15.1954 7.22591 15.1954 7.22593C15.1954 7.22593 15.1959 7.22652 15.197 7.22774C15.198 7.22893 15.1997 7.23105 15.2019 7.23413C15.2057 7.23943 15.2142 7.25214 15.2228 7.27198L14.58 7.54916C14.6334 7.67306 14.7382 7.76066 14.7992 7.80484C14.8602 7.849 14.9757 7.92089 15.1092 7.93325L15.1737 7.23624ZM21.679 7.83879L15.1737 7.23624L15.1092 7.93325L21.6145 8.53581L21.679 7.83879ZM22.2281 9.52764C22.5458 9.24885 22.6748 8.85356 22.5578 8.48936C22.4404 8.12401 22.104 7.87815 21.679 7.83879L21.6145 8.53581C21.8044 8.5534 21.8725 8.64501 21.8913 8.70346C21.9105 8.76307 21.9072 8.87792 21.7664 9.00144L22.2281 9.52764ZM17.3198 13.8338L22.2281 9.52764L21.7664 9.00144L16.8582 13.3076L17.3198 13.8338ZM17.3387 13.7754C17.3435 13.7967 17.344 13.8121 17.3441 13.8186C17.3441 13.8223 17.344 13.8251 17.3439 13.8266C17.3438 13.8274 17.3438 13.828 17.3437 13.8284C17.3437 13.8288 17.3437 13.829 17.3437 13.829C17.3437 13.829 17.3437 13.8285 17.3439 13.8274C17.3441 13.8263 17.3444 13.8249 17.3448 13.8232C17.3456 13.8196 17.3468 13.8154 17.3483 13.8108C17.3497 13.8063 17.3513 13.8022 17.3527 13.7988C17.3534 13.7972 17.354 13.7959 17.3545 13.7949C17.3549 13.794 17.3552 13.7935 17.3552 13.7935C17.3551 13.7935 17.3548 13.7943 17.3539 13.7956C17.3531 13.7969 17.3516 13.7992 17.3493 13.8022C17.3455 13.8075 17.336 13.8195 17.3198 13.8338L16.8581 13.3076C16.7567 13.3966 16.7057 13.5232 16.6824 13.5949C16.6592 13.6664 16.6263 13.7986 16.6559 13.9296L17.3387 13.7754ZM18.7751 20.1404L17.3387 13.7754L16.6559 13.9295L18.0923 20.2945L18.7751 20.1404ZM10.9812 16.5084L5.85514 19.5595L6.21316 20.161L11.3392 17.1099L10.9812 16.5084ZM12.5188 16.5081C12.0696 16.2417 11.428 16.2435 10.9817 16.5081L11.3387 17.1102C11.5656 16.9757 11.9334 16.9748 12.1617 17.1102L12.5188 16.5081ZM17.6429 19.5467L12.5188 16.5081L12.1617 17.1102L17.2858 20.1488L17.6429 19.5467ZM15.812 14.1195L17.1229 19.9248L17.8057 19.7706L16.4948 13.9654L15.812 14.1195ZM16.2872 12.6585C15.8946 13.003 15.6977 13.6134 15.812 14.1195L16.4948 13.9654C16.4369 13.7088 16.5495 13.3597 16.7489 13.1847L16.2872 12.6585ZM20.7571 8.73695L16.2872 12.6585L16.7489 13.1847L21.2188 9.26315L20.7571 8.73695ZM15.0289 8.79345L20.9553 9.34853L21.0206 8.65158L15.0942 8.0965L15.0289 8.79345ZM13.7855 7.89086C13.9923 8.37042 14.5126 8.74563 15.0293 8.79349L15.0938 8.09647C14.831 8.07212 14.5332 7.85694 14.4283 7.61369L13.7855 7.89086ZM11.4239 2.41434L13.7855 7.89086L14.4283 7.61369L12.0667 2.13717L11.4239 2.41434ZM9.71521 7.89038L12.0669 2.41386L11.4237 2.13765L9.07201 7.61417L9.71521 7.89038ZM8.4712 8.79349C8.99129 8.74531 9.50957 8.36728 9.715 7.89086L9.07222 7.61369C8.968 7.85536 8.67121 8.07196 8.40664 8.09647L8.4712 8.79349ZM2.54274 9.34261L8.4712 8.79349L8.40664 8.09647L2.47818 8.64559L2.54274 9.34261ZM7.21341 12.6587L2.74142 8.73112L2.2795 9.25708L6.75148 13.1846L7.21341 12.6587ZM7.68852 14.1195C7.80349 13.61 7.60333 13.0007 7.21327 12.6585L6.75162 13.1847C6.94971 13.3585 7.06397 13.7071 7.00569 13.9654L7.68852 14.1195ZM6.37556 19.9373L7.68852 14.1195L7.00569 13.9654L5.69274 19.7832L6.37556 19.9373Z" fill="#C1BEBE"/>
</svg>
