<svg width="24" height="23" viewBox="0 0 24 23" fill="none" xmlns="http://www.w3.org/2000/svg">
<path d="M14.8555 7.81939L15.1043 8.32372L15.6608 8.4046L22.3742 9.38028L17.516 14.1167L17.1135 14.5092L17.2086 15.0633L18.3559 21.749L12.352 18.5924L11.8543 18.3307L11.3567 18.5924L5.35279 21.749L6.50011 15.0633L6.5952 14.5092L6.19264 14.1167L1.33452 9.38028L8.0479 8.4046L8.60441 8.32372L8.85318 7.81939L11.8543 1.7351L14.8555 7.81939ZM1.07657 9.12878C1.07665 9.12887 1.07674 9.12895 1.07683 9.12904L1.07663 9.12884L1.07657 9.12878ZM11.6945 1.41114C11.6944 1.41089 11.6943 1.41064 11.6942 1.41039L11.6945 1.41114Z" stroke="white" stroke-width="2.13883"/>
</svg>
