<svg width="9" height="10" viewBox="0 0 9 10" fill="none" xmlns="http://www.w3.org/2000/svg">
<path d="M4.54673 0.330336C3.28311 0.330336 2.25507 1.35838 2.25507 2.622V3.53867H1.79673C1.29119 3.53867 0.880066 3.9498 0.880066 4.45534V8.58034C0.880066 9.08588 1.29119 9.497 1.79673 9.497H7.29673C7.80227 9.497 8.2134 9.08588 8.2134 8.58034V4.45534C8.2134 3.9498 7.80227 3.53867 7.29673 3.53867H6.8384V2.622C6.8384 1.35838 5.81036 0.330336 4.54673 0.330336ZM3.17173 2.622C3.17173 1.86392 3.78865 1.247 4.54673 1.247C5.30482 1.247 5.92173 1.86392 5.92173 2.622V3.53867H3.17173V2.622ZM7.29765 8.58034H5.00507V7.53625C5.27777 7.37721 5.4634 7.0848 5.4634 6.747C5.4634 6.24146 5.05227 5.83034 4.54673 5.83034C4.04119 5.83034 3.63007 6.24146 3.63007 6.747C3.63007 7.08434 3.81569 7.37721 4.0884 7.53625V8.58034H1.79673V4.45534H7.29673L7.29765 8.58034Z" fill="#AB91D2"/>
</svg>
