<svg width="21" height="21" viewBox="0 0 21 21" fill="none" xmlns="http://www.w3.org/2000/svg">
<path d="M10.7427 20.4013C8.8039 20.4013 6.90859 19.8204 5.2965 18.7318C3.68441 17.6433 2.42793 16.0962 1.68597 14.2861C0.944006 12.476 0.749874 10.4842 1.12812 8.56257C1.50637 6.64096 2.44002 4.87585 3.81099 3.49044C5.18196 2.10504 6.92869 1.16157 8.83028 0.779338C10.7319 0.397106 12.7029 0.593281 14.4942 1.34306C16.2854 2.09283 17.8165 3.36253 18.8936 4.99159C19.9708 6.62065 20.5457 8.53591 20.5457 10.4952C20.5457 13.1224 19.5129 15.6421 17.6745 17.4999C15.8361 19.3577 13.3427 20.4013 10.7427 20.4013ZM10.7427 2.39012C9.15642 2.39012 7.60571 2.86547 6.28673 3.75606C4.96774 4.64666 3.93972 5.91249 3.33266 7.3935C2.72559 8.8745 2.56676 10.5042 2.87624 12.0764C3.18571 13.6486 3.9496 15.0928 5.07131 16.2263C6.19301 17.3598 7.62215 18.1317 9.178 18.4445C10.7338 18.7572 12.3465 18.5967 13.8121 17.9833C15.2777 17.3698 16.5303 16.331 17.4116 14.9981C18.293 13.6652 18.7634 12.0982 18.7634 10.4952C18.7634 8.34557 17.9183 6.28402 16.4142 4.76403C14.91 3.24404 12.8699 2.39012 10.7427 2.39012Z" fill="black"/>
</svg>
