<svg width="8" height="11" viewBox="0 0 8 11" fill="none" xmlns="http://www.w3.org/2000/svg">
<path d="M3.86607 0.922226C2.60244 0.922226 1.5744 1.95027 1.5744 3.21389V4.13056H1.11607C0.610527 4.13056 0.199402 4.54168 0.199402 5.04723V9.17223C0.199402 9.67777 0.610527 10.0889 1.11607 10.0889H6.61607C7.12161 10.0889 7.53274 9.67777 7.53274 9.17223V5.04723C7.53274 4.54168 7.12161 4.13056 6.61607 4.13056H6.15774V3.21389C6.15774 1.95027 5.12969 0.922226 3.86607 0.922226ZM2.49107 3.21389C2.49107 2.45581 3.10799 1.83889 3.86607 1.83889C4.62415 1.83889 5.24107 2.45581 5.24107 3.21389V4.13056H2.49107V3.21389ZM6.61699 9.17223H4.3244V8.12814C4.59711 7.9691 4.78274 7.67669 4.78274 7.33889C4.78274 6.83335 4.37161 6.42223 3.86607 6.42223C3.36053 6.42223 2.9494 6.83335 2.9494 7.33889C2.9494 7.67623 3.13503 7.9691 3.40774 8.12814V9.17223H1.11607V5.04723H6.61607L6.61699 9.17223Z" fill="#AB91D2"/>
</svg>
