<svg width="24" height="23" viewBox="0 0 24 23" fill="none" xmlns="http://www.w3.org/2000/svg">
<path d="M21.758 10.008C21.0918 10.008 20.5264 10.4469 20.3353 11.0508H19.3732C19.2701 9.28289 18.5629 7.67469 17.4555 6.42987L18.138 5.74728C18.3482 5.85689 18.5829 5.91524 18.8268 5.91524C18.8702 5.91524 18.9133 5.91304 18.9561 5.9094L19.6538 7.59361C19.7254 7.7666 19.8927 7.871 20.069 7.871C20.1263 7.871 20.1845 7.85999 20.2407 7.83668C20.47 7.74172 20.5788 7.47897 20.4839 7.24973L19.7862 5.56553C19.819 5.53786 19.8511 5.50893 19.8818 5.4782C20.4635 4.89651 20.4635 3.94997 19.8818 3.36823C19.6 3.08644 19.2253 2.93123 18.8268 2.93123C18.4283 2.93123 18.0536 3.08644 17.7719 3.36823C17.49 3.65002 17.3348 4.02471 17.3348 4.42321C17.3348 4.66705 17.3932 4.90181 17.5029 5.11195L16.8203 5.79454C15.5754 4.68709 13.9673 3.97993 12.1994 3.87688V2.91474C12.4724 2.82836 12.7115 2.66534 12.8918 2.45111L14.5765 3.14901C14.6327 3.17233 14.6909 3.18333 14.7483 3.18333C14.9245 3.18333 15.0918 3.07889 15.1635 2.90589C15.2584 2.6767 15.1495 2.41391 14.9203 2.31899L13.236 1.62131C13.2397 1.57864 13.242 1.5356 13.242 1.49203C13.242 0.669333 12.5727 0 11.75 0C10.9274 0 10.2581 0.669289 10.2581 1.49198C10.2581 2.15817 10.697 2.72365 11.3008 2.9147V3.87688C9.53289 3.97993 7.92478 4.68709 6.67991 5.79454L5.99728 5.11195C6.10689 4.90181 6.16529 4.66705 6.16529 4.42321C6.16529 4.37978 6.16309 4.3367 6.15945 4.29389L7.84365 3.59625C8.07289 3.50129 8.18169 3.23854 8.08677 3.0093C7.99181 2.78011 7.7291 2.67122 7.49982 2.76619L5.81566 3.46382C5.78799 3.43094 5.75906 3.39896 5.72834 3.36823C5.44659 3.08644 5.0719 2.93119 4.6734 2.93119C4.27489 2.93119 3.9002 3.08639 3.61836 3.36823C3.03667 3.94997 3.03667 4.89651 3.61841 5.4782C3.90025 5.75999 4.27489 5.9152 4.67344 5.9152C4.91723 5.9152 5.15199 5.85685 5.36213 5.74724L6.04472 6.42982C4.93726 7.67465 4.23006 9.28284 4.12701 11.0507H3.16474C3.07836 10.7777 2.91534 10.5385 2.70111 10.3583L3.39901 8.67335C3.49398 8.44411 3.38513 8.18136 3.15589 8.08644C2.92675 7.99153 2.66391 8.10033 2.56899 8.32956L1.87136 10.0139C1.82868 10.0103 1.78565 10.008 1.74207 10.008C0.919288 10.008 0.25 10.6773 0.25 11.5C0.25 12.3227 0.919289 12.9919 1.74198 12.9919C2.40817 12.9919 2.97365 12.553 3.1647 11.9492H4.12688C4.22997 13.7171 4.93709 15.3253 6.04454 16.5701L5.36195 17.2527C5.15181 17.1431 4.91705 17.0847 4.67326 17.0847C4.62982 17.0847 4.5867 17.0869 4.54389 17.0905L3.84625 15.4063C3.75129 15.1771 3.48858 15.0682 3.2593 15.1632C3.03007 15.2582 2.92127 15.5209 3.01619 15.7502L3.71387 17.4344C3.68103 17.4621 3.64896 17.491 3.61823 17.5218C3.03658 18.1034 3.03658 19.05 3.61827 19.6318C3.90007 19.9135 4.27476 20.0687 4.67326 20.0687C5.07176 20.0687 5.44641 19.9135 5.7282 19.6317C6.00999 19.3499 6.1652 18.9752 6.1652 18.5767C6.1652 18.333 6.10685 18.0982 5.99719 17.888L6.67978 17.2055C7.92465 18.3129 9.5328 19.0201 11.3007 19.1231V20.0853C11.0277 20.1717 10.7885 20.3347 10.6083 20.5489L8.92339 19.851C8.69425 19.756 8.43141 19.8649 8.33649 20.0941C8.24153 20.3233 8.35042 20.5861 8.57961 20.681L10.2639 21.3787C10.2603 21.4214 10.258 21.4644 10.258 21.508C10.258 22.3307 10.9273 23 11.75 23C12.5726 23 13.2419 22.3307 13.2419 21.508C13.2419 20.8418 12.803 20.2764 12.1992 20.0853V19.1231C13.9671 19.0201 15.5752 18.3129 16.8201 17.2055L17.5027 17.888C17.3931 18.0981 17.3347 18.3329 17.3347 18.5767C17.3347 18.6201 17.3369 18.6633 17.3405 18.7061L15.6563 19.4037C15.4272 19.4987 15.3183 19.7614 15.4132 19.9907C15.4849 20.1636 15.6521 20.268 15.8284 20.268C15.8857 20.268 15.944 20.257 16.0002 20.2337L17.6844 19.5361C17.7121 19.5689 17.741 19.6009 17.7717 19.6316C18.0535 19.9134 18.4282 20.0686 18.8267 20.0686C19.2252 20.0686 19.5998 19.9134 19.8817 19.6316C20.4634 19.0499 20.4634 18.1034 19.8817 17.5217C19.5998 17.2399 19.2252 17.0847 18.8267 17.0847C18.5829 17.0847 18.3481 17.143 18.138 17.2527L17.4554 16.5701C18.5628 15.3253 19.27 13.7171 19.3731 11.9492H20.3352C20.4216 12.2222 20.5846 12.4614 20.7988 12.6416L20.101 14.3265C20.006 14.5557 20.1149 14.8185 20.3441 14.9134C20.4003 14.9367 20.4585 14.9477 20.5158 14.9477C20.6921 14.9477 20.8594 14.8433 20.9311 14.6703L21.6287 12.9859C21.6713 12.9896 21.7144 12.9919 21.7579 12.9919C22.5806 12.9919 23.25 12.3226 23.25 11.5C23.25 10.6773 22.5808 10.008 21.758 10.008ZM18.407 4.00356C18.5191 3.89143 18.6682 3.82971 18.8267 3.82971C18.9852 3.82971 19.1343 3.89143 19.2464 4.00356C19.4778 4.23499 19.4778 4.61157 19.2464 4.84296C19.1905 4.89889 19.1254 4.94224 19.0544 4.97171C19.0543 4.9718 19.0541 4.97184 19.0539 4.97189C19.0538 4.97198 19.0536 4.97202 19.0534 4.97211C18.9825 5.00145 18.9058 5.01681 18.8267 5.01681C18.6682 5.01681 18.5191 4.95509 18.407 4.84292C18.2949 4.73084 18.2331 4.58179 18.2331 4.42326C18.2332 4.26473 18.295 4.11568 18.407 4.00356ZM5.09301 4.84296C4.98093 4.95509 4.83188 5.01681 4.67335 5.01681C4.51473 5.01681 4.36568 4.95504 4.25356 4.84296C4.02217 4.61153 4.02217 4.23495 4.25356 4.00356C4.36568 3.89143 4.51473 3.82971 4.67331 3.82971C4.83183 3.82971 4.98088 3.89143 5.09296 4.00356C5.14894 4.05953 5.19233 4.12471 5.2218 4.19569C5.22189 4.19578 5.22189 4.19591 5.22193 4.19605C5.22198 4.19614 5.22202 4.19618 5.22207 4.19627C5.25145 4.26729 5.26686 4.34406 5.26686 4.42326C5.26686 4.58179 5.20518 4.73084 5.09301 4.84296ZM1.74203 12.0935C1.41473 12.0935 1.14848 11.8273 1.14848 11.5C1.14848 11.1727 1.41473 10.9065 1.74203 10.9065C2.06933 10.9065 2.33558 11.1727 2.33558 11.5C2.33558 11.8273 2.06933 12.0935 1.74203 12.0935ZM5.09301 18.9964C4.98093 19.1085 4.83188 19.1703 4.67335 19.1703C4.51478 19.1703 4.36573 19.1085 4.25365 18.9965C4.02225 18.7651 4.02221 18.3885 4.2536 18.1571C4.30953 18.1012 4.37467 18.0578 4.4456 18.0283C4.44578 18.0283 4.44596 18.0282 4.44614 18.0282C4.44627 18.0281 4.44645 18.028 4.44659 18.0279C4.51756 17.9986 4.59429 17.9832 4.67335 17.9832C4.83188 17.9832 4.98093 18.045 5.09301 18.1571C5.20513 18.2692 5.26686 18.4182 5.26686 18.5767C5.26686 18.7353 5.20509 18.8843 5.09301 18.9964ZM18.4071 18.157C18.5192 18.0449 18.6682 17.9832 18.8267 17.9832C18.9853 17.9832 19.1344 18.045 19.2465 18.157C19.4779 18.3885 19.4779 18.7651 19.2465 18.9964C19.1344 19.1085 18.9853 19.1703 18.8268 19.1703C18.6683 19.1703 18.5192 19.1085 18.4071 18.9964C18.3512 18.9405 18.3078 18.8754 18.2783 18.8045C18.2783 18.8043 18.2782 18.8042 18.2782 18.804C18.2781 18.8038 18.278 18.8037 18.2779 18.8035C18.2486 18.7325 18.2332 18.6558 18.2332 18.5767C18.2332 18.4182 18.2949 18.2692 18.4071 18.157ZM18.2716 9.80259C17.9215 9.5659 17.4931 9.34996 16.991 9.16034C16.3142 8.90469 15.532 8.70457 14.6831 8.5654C14.5437 7.71957 14.3435 6.93937 14.0881 6.26303C13.8976 5.7586 13.6808 5.32857 13.4433 4.97732C15.7992 5.58938 17.6581 7.44725 18.2716 9.80259ZM14.0151 11.5C14.0151 12.2382 13.9721 12.9583 13.8895 13.6405C13.2081 13.7225 12.4883 13.7652 11.75 13.7652C11.0115 13.7652 10.2918 13.7225 9.61038 13.6405C9.52781 12.9583 9.48478 12.2382 9.48478 11.5C9.48478 10.7617 9.52781 10.0417 9.61038 9.35948C10.2918 9.27745 11.0115 9.23473 11.75 9.23473C12.4884 9.23473 13.2081 9.27745 13.8895 9.35948C13.9721 10.0417 14.0151 10.7617 14.0151 11.5ZM11.1565 1.49198C11.1565 1.16469 11.4227 0.898434 11.75 0.898434C12.0773 0.898434 12.3436 1.16469 12.3436 1.49198C12.3436 1.81928 12.0773 2.08553 11.75 2.08553C11.4227 2.08553 11.1565 1.81928 11.1565 1.49198ZM11.7499 4.76174C12.2577 4.76174 12.8175 5.44164 13.2476 6.58044C13.4555 7.13114 13.6241 7.75906 13.7498 8.43998C13.1062 8.3717 12.4348 8.33634 11.75 8.33634C11.0651 8.33634 10.3938 8.3717 9.75009 8.43998C9.87582 7.7591 10.0444 7.13114 10.2523 6.58044C10.6824 5.44164 11.2422 4.76174 11.7499 4.76174ZM10.0567 4.97737C9.81922 5.32861 9.60247 5.75865 9.41196 6.26307C9.15654 6.93941 8.95632 7.71961 8.81697 8.56544C7.96804 8.70457 7.18591 8.90474 6.50903 9.16039C6.00685 9.35005 5.57857 9.56594 5.22849 9.80263C5.84194 7.44725 7.7008 5.58938 10.0567 4.97737ZM6.82645 10.0008C7.37764 9.79266 8.0073 9.62407 8.69083 9.49847C8.62201 10.143 8.58639 10.8149 8.58639 11.5C8.58639 12.1851 8.62206 12.857 8.69083 13.5015C8.0073 13.3759 7.37764 13.2073 6.82645 12.9991C5.6902 12.57 5.01179 12.0096 5.01179 11.5C5.01179 10.9904 5.6902 10.43 6.82645 10.0008ZM5.2284 13.1974C5.57852 13.4341 6.00681 13.65 6.50899 13.8397C7.18582 14.0953 7.968 14.2955 8.81693 14.4346C8.95627 15.2804 9.15645 16.0606 9.41192 16.737C9.60243 17.2414 9.81918 17.6714 10.0567 18.0227C7.70071 17.4107 5.84185 15.5527 5.2284 13.1974ZM12.3436 21.508C12.3436 21.8353 12.0773 22.1016 11.75 22.1016C11.4227 22.1016 11.1565 21.8353 11.1565 21.508C11.1565 21.1807 11.4227 20.9145 11.75 20.9145C12.0773 20.9145 12.3436 21.1807 12.3436 21.508ZM11.7501 18.2383C11.2424 18.2383 10.6825 17.5584 10.2524 16.4196C10.0445 15.8689 9.87596 15.2409 9.75022 14.56C10.3939 14.6283 11.0652 14.6637 11.7501 14.6637C12.435 14.6637 13.1063 14.6283 13.75 14.56C13.6242 15.2409 13.4557 15.8689 13.2477 16.4196C12.8177 17.5584 12.2578 18.2383 11.7501 18.2383ZM13.4434 18.0227C13.6809 17.6714 13.8976 17.2414 14.0881 16.737C14.3436 16.0606 14.5438 15.2804 14.6831 14.4346C15.532 14.2955 16.3142 14.0953 16.9911 13.8397C17.4932 13.65 17.9215 13.4341 18.2716 13.1974C17.6581 15.5527 15.7993 17.4107 13.4434 18.0227ZM16.6736 12.9991C16.1224 13.2073 15.4927 13.3759 14.8092 13.5015C14.878 12.8569 14.9137 12.1851 14.9137 11.5C14.9137 10.8149 14.878 10.143 14.8092 9.49847C15.4927 9.62407 16.1224 9.79266 16.6736 10.0008C17.8098 10.43 18.4883 10.9904 18.4883 11.5C18.4883 12.0096 17.8098 12.57 16.6736 12.9991ZM21.758 12.0935C21.4307 12.0935 21.1645 11.8273 21.1645 11.5C21.1645 11.1727 21.4307 10.9065 21.758 10.9065C22.0853 10.9065 22.3516 11.1727 22.3516 11.5C22.3516 11.8273 22.0853 12.0935 21.758 12.0935Z" fill="#97A0C3"/>
</svg>
