<svg width="23" height="22" viewBox="0 0 23 22" fill="none" xmlns="http://www.w3.org/2000/svg">
<path d="M22.25 10.9144V14.7385C22.2046 15.8787 20.5763 15.8778 20.5313 14.7385V13.0409L17.7964 15.7758C17.6352 15.937 17.4166 16.0275 17.1887 16.0275H12.8523L7.13147 21.7484C6.79589 22.084 6.25175 22.084 5.91617 21.7484C5.58055 21.4127 5.58055 20.8686 5.91617 20.5331L11.8887 14.5605C12.0498 14.3994 12.2684 14.3088 12.4963 14.3088H16.8327L19.3678 11.7737H17.5236C16.3834 11.7284 16.3842 10.1 17.5236 10.055H21.3907C21.8653 10.055 22.25 10.4398 22.25 10.9144ZM21.3907 17.3166C20.916 17.3166 20.5313 17.7013 20.5313 18.1759V21.1407C20.5767 22.2809 22.205 22.28 22.25 21.1407V18.1759C22.25 17.7013 21.8653 17.3166 21.3907 17.3166ZM17.9532 17.3166C17.4786 17.3166 17.0939 17.7013 17.0939 18.1759V21.1407C17.1393 22.2809 18.7676 22.28 18.8126 21.1407V18.1759C18.8126 17.7013 18.4279 17.3166 17.9532 17.3166ZM14.5158 17.3166C14.0412 17.3166 13.6565 17.7013 13.6565 18.1759V21.1407C13.7018 22.2809 15.3302 22.28 15.3752 21.1407V18.1759C15.3752 17.7013 14.9904 17.3166 14.5158 17.3166ZM11.0784 19.9376C10.6038 19.9376 10.219 20.3223 10.219 20.797V21.1407C10.2644 22.2809 11.8928 22.28 11.9378 21.1407V20.797C11.9378 20.3223 11.553 19.9376 11.0784 19.9376ZM9.31672 14.5666C9.79135 14.5666 10.1761 14.1819 10.1761 13.7073V13.1795C12.87 12.1823 12.2195 8.2194 9.31668 8.16445C8.17408 8.11783 8.17963 6.49906 9.31672 6.45188C9.66175 6.45188 9.93722 6.63467 10.0725 6.95344C10.258 7.3903 10.7625 7.59405 11.1994 7.40864C11.6363 7.22319 11.84 6.71867 11.6546 6.28177C11.3669 5.60413 10.8325 5.10858 10.1761 4.8778V4.29731C10.1307 3.15711 8.50236 3.15797 8.45737 4.29731V4.88038C5.76733 5.87753 6.40888 9.82798 9.31677 9.88311C10.453 9.93016 10.4602 11.5607 9.31672 11.608C8.98252 11.608 8.65107 11.3899 8.51074 11.0777C8.31618 10.6448 7.80748 10.4516 7.37463 10.6461C6.94173 10.8407 6.7485 11.3493 6.9431 11.7822C7.2364 12.4348 7.7985 12.9361 8.45737 13.1742V13.7072C8.45737 14.1819 8.8421 14.5666 9.31672 14.5666ZM6.35178 17.5089C6.69733 17.5089 7.02324 17.2989 7.15433 16.9569C7.32427 16.5138 7.10273 16.0168 6.65956 15.8469C-0.822544 12.8256 1.18693 1.85382 9.27389 1.71928C12.8303 1.71928 15.8561 4.2573 16.4685 7.7541C16.5503 8.22155 16.9957 8.53418 17.4632 8.45233C17.9307 8.37048 18.2433 7.92512 18.1614 7.45763C17.7997 5.39217 16.7153 3.50373 15.108 2.14024C9.31492 -2.81119 0.224623 1.39432 0.250575 9.02389C0.207264 12.6918 2.61419 16.1775 6.0443 17.4517C6.14553 17.4905 6.24947 17.5089 6.35178 17.5089Z" fill="#97A0C3"/>
</svg>
