<svg width="8" height="10" viewBox="0 0 8 10" fill="none" xmlns="http://www.w3.org/2000/svg">
<path d="M3.95005 0.0309448C2.68643 0.0309448 1.65839 1.05899 1.65839 2.32261V3.23928H1.20005C0.694511 3.23928 0.283386 3.6504 0.283386 4.15595V8.28095C0.283386 8.78649 0.694511 9.19761 1.20005 9.19761H6.70005C7.20559 9.19761 7.61672 8.78649 7.61672 8.28095V4.15595C7.61672 3.6504 7.20559 3.23928 6.70005 3.23928H6.24172V2.32261C6.24172 1.05899 5.21368 0.0309448 3.95005 0.0309448ZM2.57505 2.32261C2.57505 1.56453 3.19197 0.947612 3.95005 0.947612C4.70814 0.947612 5.32505 1.56453 5.32505 2.32261V3.23928H2.57505V2.32261ZM6.70097 8.28095H4.40839V7.23686C4.68109 7.07782 4.86672 6.7854 4.86672 6.44761C4.86672 5.94207 4.45559 5.53095 3.95005 5.53095C3.44451 5.53095 3.03339 5.94207 3.03339 6.44761C3.03339 6.78495 3.21901 7.07782 3.49172 7.23686V8.28095H1.20005V4.15595H6.70005L6.70097 8.28095Z" fill="#AB91D2"/>
</svg>
