<svg width="26" height="17" viewBox="0 0 26 17" fill="none" xmlns="http://www.w3.org/2000/svg">
<path d="M4.97344 6.02695C6.22578 2.72383 9.4168 0.375 13.1547 0.375C16.8926 0.375 20.0836 2.72109 21.3359 6.02422C23.6793 6.63945 25.4102 8.775 25.4102 11.3125C25.4102 14.334 22.9629 16.7812 19.9441 16.7812H18.8477C18.7273 16.7812 18.6289 16.6828 18.6289 16.5625V14.9219C18.6289 14.8016 18.7273 14.7031 18.8477 14.7031H19.9441C20.8656 14.7031 21.7324 14.3367 22.3777 13.6723C23.0203 13.0105 23.3621 12.1191 23.332 11.1949C23.3074 10.473 23.0613 9.79492 22.6156 9.22344C22.159 8.64102 21.5191 8.21719 20.8082 8.02852L19.7719 7.75781L19.3918 6.75703C19.1566 6.13359 18.8285 5.55117 18.4156 5.02344C18.008 4.50037 17.5252 4.04057 16.9828 3.65898C15.859 2.86875 14.5355 2.45039 13.1547 2.45039C11.7738 2.45039 10.4504 2.86875 9.32656 3.65898C8.78242 4.0418 8.30117 4.50117 7.89375 5.02344C7.48086 5.55117 7.15273 6.13633 6.91758 6.75703L6.54024 7.75508L5.50664 8.02852C4.02461 8.42773 2.98828 9.77578 2.98828 11.3125C2.98828 12.2176 3.34101 13.0707 3.98086 13.7105C4.29465 14.0262 4.66792 14.2764 5.07908 14.4468C5.49024 14.6172 5.93111 14.7043 6.37617 14.7031H7.47266C7.59297 14.7031 7.69141 14.8016 7.69141 14.9219V16.5625C7.69141 16.6828 7.59297 16.7812 7.47266 16.7812H6.37617C3.35742 16.7812 0.910156 14.334 0.910156 11.3125C0.910156 8.77773 2.63555 6.64492 4.97344 6.02695Z" fill="white"/>
</svg>
