<svg width="8" height="12" viewBox="0 0 8 12" fill="none" xmlns="http://www.w3.org/2000/svg">
<path d="M1.09771 7.31289H3.12388V0.6875C3.12388 0.567187 3.22232 0.46875 3.34263 0.46875H4.98325C5.10356 0.46875 5.202 0.567187 5.202 0.6875V7.31289H7.2227C7.40591 7.31289 7.50708 7.52344 7.39497 7.66562L4.33247 11.5402C4.31201 11.5664 4.28586 11.5875 4.25602 11.6021C4.22617 11.6166 4.19341 11.6242 4.16021 11.6242C4.12701 11.6242 4.09424 11.6166 4.06439 11.6021C4.03455 11.5875 4.0084 11.5664 3.98794 11.5402L0.925444 7.66562C0.813335 7.52344 0.914506 7.31289 1.09771 7.31289Z" fill="white"/>
</svg>
