<svg width="8" height="10" viewBox="0 0 8 10" fill="none" xmlns="http://www.w3.org/2000/svg">
<path d="M3.86607 0.528519C2.60244 0.528519 1.5744 1.55656 1.5744 2.82019V3.73685H1.11607C0.610527 3.73685 0.199402 4.14798 0.199402 4.65352V8.77852C0.199402 9.28406 0.610527 9.69519 1.11607 9.69519H6.61607C7.12161 9.69519 7.53274 9.28406 7.53274 8.77852V4.65352C7.53274 4.14798 7.12161 3.73685 6.61607 3.73685H6.15774V2.82019C6.15774 1.55656 5.12969 0.528519 3.86607 0.528519ZM2.49107 2.82019C2.49107 2.0621 3.10799 1.44519 3.86607 1.44519C4.62415 1.44519 5.24107 2.0621 5.24107 2.82019V3.73685H2.49107V2.82019ZM6.61699 8.77852H4.3244V7.73444C4.59711 7.57539 4.78274 7.28298 4.78274 6.94519C4.78274 6.43964 4.37161 6.02852 3.86607 6.02852C3.36053 6.02852 2.9494 6.43964 2.9494 6.94519C2.9494 7.28252 3.13503 7.57539 3.40774 7.73444V8.77852H1.11607V4.65352H6.61607L6.61699 8.77852Z" fill="#AB91D2"/>
</svg>
