<svg width="20" height="25" viewBox="0 0 20 25" fill="none" xmlns="http://www.w3.org/2000/svg">
<path d="M9.89385 24.4024C14.7408 24.4024 19.6462 22.7274 19.6462 19.5262V4.89761C19.6462 1.69639 14.7408 0.0214233 9.89385 0.0214233C5.04692 0.0214233 0.141479 1.69639 0.141479 4.89761V19.5262C0.141479 22.7274 5.04692 24.4024 9.89385 24.4024ZM9.89385 21.9643C5.35656 21.9643 2.57957 20.3856 2.57957 19.5262V17.9804C4.45812 19.002 7.18391 19.5262 9.89385 19.5262C12.6038 19.5262 15.3296 19.002 17.2081 17.9804V19.5262C17.2081 20.3856 14.4311 21.9643 9.89385 21.9643ZM9.89385 2.45952C14.4311 2.45952 17.2081 4.03818 17.2081 4.89761C17.2081 5.75704 14.4311 7.3357 9.89385 7.3357C5.35656 7.3357 2.57957 5.75704 2.57957 4.89761C2.57957 4.03818 5.35656 2.45952 9.89385 2.45952ZM2.57957 8.22805C4.45812 9.24961 7.18391 9.7738 9.89385 9.7738C12.6038 9.7738 15.3296 9.24961 17.2081 8.22805V9.7738C17.2081 10.6332 14.4311 12.2119 9.89385 12.2119C5.35656 12.2119 2.57957 10.6332 2.57957 9.7738V8.22805ZM2.57957 13.1042C4.45812 14.1258 7.18391 14.65 9.89385 14.65C12.6038 14.65 15.3296 14.1258 17.2081 13.1042V14.65C17.2081 15.5094 14.4311 17.0881 9.89385 17.0881C5.35656 17.0881 2.57957 15.5094 2.57957 14.65V13.1042Z" fill="white"/>
</svg>
