<svg width="9" height="11" viewBox="0 0 9 11" fill="none" xmlns="http://www.w3.org/2000/svg">
<path d="M4.44425 0.922134C3.18063 0.922134 2.15259 1.95018 2.15259 3.2138V4.13047H1.69425C1.18871 4.13047 0.777588 4.54159 0.777588 5.04713V9.17214C0.777588 9.67768 1.18871 10.0888 1.69425 10.0888H7.19425C7.6998 10.0888 8.11092 9.67768 8.11092 9.17214V5.04713C8.11092 4.54159 7.6998 4.13047 7.19425 4.13047H6.73592V3.2138C6.73592 1.95018 5.70788 0.922134 4.44425 0.922134ZM3.06925 3.2138C3.06925 2.45572 3.68617 1.8388 4.44425 1.8388C5.20234 1.8388 5.81925 2.45572 5.81925 3.2138V4.13047H3.06925V3.2138ZM7.19517 9.17214H4.90259V8.12805C5.1753 7.96901 5.36092 7.67659 5.36092 7.3388C5.36092 6.83326 4.9498 6.42214 4.44425 6.42214C3.93871 6.42214 3.52759 6.83326 3.52759 7.3388C3.52759 7.67614 3.71321 7.96901 3.98592 8.12805V9.17214H1.69425V5.04713H7.19425L7.19517 9.17214Z" fill="#AB91D2"/>
</svg>
